<svg width="125" height="125" viewBox="0 0 125 125" fill="none" xmlns="http://www.w3.org/2000/svg">
<circle cx="62.5" cy="62.5" r="62.5" fill="#3E63DF"/>
<path d="M54.9621 44.7916C54.9621 42.9736 55.5972 41.4294 56.8675 40.1591C58.1378 38.8889 59.6819 38.2537 61.5 38.2537C63.318 38.2537 64.8622 38.8889 66.1325 40.1591C67.4028 41.4294 68.0379 42.9736 68.0379 44.7916C68.0379 46.6097 67.4028 48.1539 66.1325 49.4241C64.8622 50.6944 63.318 51.3295 61.5 51.3295C59.6819 51.3295 58.1378 50.6944 56.8675 49.4241C55.5972 48.1539 54.9621 46.6097 54.9621 44.7916ZM44.7444 44.7916C44.7444 48.7465 45.8623 52.202 48.0983 55.1581C50.3296 58.1142 53.026 60.0125 56.1875 60.8531L56.1875 70.9468L53.2833 74.7329C53.1133 74.995 52.9764 75.2653 52.8725 75.5439C52.7686 75.8225 52.7178 76.1295 52.7202 76.4648C52.7226 76.8 52.7733 77.1058 52.8725 77.382C52.9764 77.6583 53.1369 77.9286 53.3542 78.1931L57.0729 82.9991L53.7685 87.2916C53.5655 87.5986 53.4014 87.9291 53.2762 88.2833C53.1511 88.6351 53.118 88.9786 53.1771 89.3139C53.2361 89.6492 53.3353 89.975 53.4746 90.2914C53.6139 90.6078 53.8146 90.8911 54.0767 91.1414L59.5202 96.2485C59.8271 96.5436 60.1423 96.7538 60.4658 96.8789C60.7869 97.0017 61.1387 97.0631 61.5212 97.0631C61.9037 97.0631 62.252 96.9982 62.566 96.8683C62.8801 96.7384 63.1846 96.5248 63.4798 96.2273L65.9554 93.7552C66.2623 93.4482 66.4819 93.1177 66.6142 92.7635C66.7464 92.4093 66.8125 92.0434 66.8125 91.6656L66.8125 60.8531C69.9173 60.0267 72.6008 58.1449 74.8627 55.2077C77.1246 52.2728 78.2556 48.8008 78.2556 44.7916C78.2556 40.0694 76.643 36.0957 73.4177 32.8704C70.1948 29.6498 66.2222 28.0396 61.5 28.0396C56.7778 28.0395 52.804 29.6522 49.5787 32.8775C46.3535 36.1027 44.7432 40.0741 44.7479 44.7916" fill="#FCFDFB"/>
</svg>
