<svg width="131" height="131" viewBox="0 0 131 131" fill="none" xmlns="http://www.w3.org/2000/svg">
<circle cx="65.5" cy="65.5" r="65.5" fill="#E3E4FF"/>
<path d="M65.5 67.5938C81.6219 67.5938 94.8125 78.0625 94.8125 86.4375C94.8125 88.6587 93.9301 90.7889 92.3595 92.3595C90.7889 93.9301 88.6587 94.8125 86.4375 94.8125H44.5625C42.3413 94.8125 40.2111 93.9301 38.6405 92.3595C37.0699 90.7889 36.1875 88.6587 36.1875 86.4375C36.1875 78.0625 49.3781 67.5938 65.5 67.5938ZM65.5 73.875C58.7581 73.875 52.6695 76.0776 48.3647 79.0424C43.7166 82.2542 42.4688 85.3194 42.4688 86.4375C42.4688 86.9928 42.6893 87.5254 43.082 87.918C43.4746 88.3107 44.0072 88.5312 44.5625 88.5312H86.4375C86.9928 88.5312 87.5254 88.3107 87.918 87.918C88.3107 87.5254 88.5312 86.9928 88.5312 86.4375C88.5312 85.3194 87.2876 82.25 82.6353 79.0424C78.3305 76.0776 72.2377 73.875 65.5 73.875ZM65.5 36.1875C69.3871 36.1875 73.115 37.7316 75.8635 40.4802C78.6121 43.2288 80.1562 46.9567 80.1562 50.8438C80.1562 54.7308 78.6121 58.4587 75.8635 61.2073C73.115 63.9559 69.3871 65.5 65.5 65.5C61.6129 65.5 57.885 63.9559 55.1365 61.2073C52.3879 58.4587 50.8438 54.7308 50.8438 50.8438C50.8438 46.9567 52.3879 43.2288 55.1365 40.4802C57.885 37.7316 61.6129 36.1875 65.5 36.1875ZM65.5 42.4688C63.2788 42.4688 61.1486 43.3511 59.578 44.9217C58.0074 46.4923 57.125 48.6226 57.125 50.8438C57.125 53.0649 58.0074 55.1952 59.578 56.7658C61.1486 58.3364 63.2788 59.2188 65.5 59.2188C67.7212 59.2188 69.8514 58.3364 71.422 56.7658C72.9926 55.1952 73.875 53.0649 73.875 50.8438C73.875 48.6226 72.9926 46.4923 71.422 44.9217C69.8514 43.3511 67.7212 42.4688 65.5 42.4688Z" fill="#546AF3"/>
</svg>
