<svg width="36" height="36" viewBox="0 0 36 36" fill="none" xmlns="http://www.w3.org/2000/svg">
<path d="M18 3C26.2845 3 33 9.7155 33 18C33 26.2845 26.2845 33 18 33C9.7155 33 3 26.2845 3 18C3 9.7155 9.7155 3 18 3ZM18 22.5C17.6022 22.5 17.2206 22.658 16.9393 22.9393C16.658 23.2206 16.5 23.6022 16.5 24C16.5 24.3978 16.658 24.7794 16.9393 25.0607C17.2206 25.342 17.6022 25.5 18 25.5C18.3978 25.5 18.7794 25.342 19.0607 25.0607C19.342 24.7794 19.5 24.3978 19.5 24C19.5 23.6022 19.342 23.2206 19.0607 22.9393C18.7794 22.658 18.3978 22.5 18 22.5ZM18 9C17.6326 9.00005 17.278 9.13493 17.0034 9.37907C16.7289 9.62321 16.5535 9.95962 16.5105 10.3245L16.5 10.5V19.5C16.5004 19.8823 16.6468 20.25 16.9093 20.5281C17.1717 20.8061 17.5304 20.9734 17.9121 20.9958C18.2938 21.0182 18.6696 20.894 18.9627 20.6486C19.2559 20.4032 19.4443 20.0551 19.4895 19.6755L19.5 19.5V10.5C19.5 10.1022 19.342 9.72064 19.0607 9.43934C18.7794 9.15804 18.3978 9 18 9Z" fill="#FF0000"/>
</svg>
